<?xml version="1.0" encoding="utf-8"?>
<!-- Generator: Adobe Illustrator 27.5.0, SVG Export Plug-In . SVG Version: 6.00 Build 0)  -->
<svg version="1.1" id="图层_1" xmlns="http://www.w3.org/2000/svg" xmlns:xlink="http://www.w3.org/1999/xlink" x="0px" y="0px"
	 viewBox="0 0 85 85" style="enable-background:new 0 0 85 85;" xml:space="preserve">
<style type="text/css">
	.st0{fill:#FFA500;}
</style>
<path class="st0" d="M71.3,60.7c0.8,1.8,1.5,2.9,2,3.5c0.5,0.5,1.7,0.9,3.4,1.2c1.7,0.3,2.6,1.3,2.6,3.1c0,2.3-1.4,4-4.1,5
	c-2.7,1-7.2,1.5-13.3,1.5c-6.8,0-11.9-0.3-15.4-0.9c-3.5-0.6-5.3-2.1-5.3-4.5c0-1.3,0.3-2.1,1-2.6c0.6-0.4,1.6-0.9,2.8-1.3
	c1.2-0.4,1.8-1.2,1.8-2.3c0-2.6-1.7-3.9-5-3.9c-3-0.3-5.1-0.4-6.4-0.4c-1.3,0-2.3,0-3,0c-4.3,0-7,0.3-8.2,0.9
	c-1.1,0.6-1.7,1.9-1.7,4.1c0,0.8,1,1.5,2.9,2.3s2.9,1.8,2.9,3.2c0,3.7-4.5,5.5-13.4,5.5c-5.3,0-8.9-0.4-11-1.1s-3.1-2.1-3.1-4.1
	c0-1.7,1.1-2.9,3.2-3.7s3.7-1.7,4.7-2.9c1-1.2,2.4-4,4.4-8.4l6.6-14.3c2.3-5,4-8.9,4.8-11.7s1.3-5.4,1.3-7.7
	c0-7.9,3.4-11.8,10.3-11.8c5,0,9.3,2.5,12.8,7.5S56.9,30,62.5,41.9L71.3,60.7L71.3,60.7z M39.3,47.8c1.6,0,2.5-0.3,2.5-1
	c0-1.4-1-3.8-3-7.1c-2-3.4-3.5-5-4.5-5c-1.1,0-2.1,1-2.9,3.1c-0.7,1.3-1.4,2.9-2.2,4.8c-0.8,1.8-1.1,3.2-1.1,4.1
	c0,0.8,0.7,1.2,2.1,1.2L39.3,47.8L39.3,47.8z"/>
</svg>
