<?xml version="1.0" encoding="utf-8"?>
<!-- Generator: Adobe Illustrator 27.5.0, SVG Export Plug-In . SVG Version: 6.00 Build 0)  -->
<svg version="1.1" id="图层_1" xmlns="http://www.w3.org/2000/svg" xmlns:xlink="http://www.w3.org/1999/xlink" x="0px" y="0px"
	 viewBox="0 0 85 85" style="enable-background:new 0 0 85 85;" xml:space="preserve">
<style type="text/css">
	.st0{fill:#2196F3;}
</style>
<path class="st0" d="M27.9,74.9L8.5,75.5c-1.9,0-3.4-0.4-4.6-1.3c-1.2-0.9-1.8-2.1-1.8-3.5c0-1.3,0.8-2.4,2.3-3.5
	c1.5-1,2.5-2.1,2.9-3.2s0.7-3.1,1-6l1.2-27.8c0-3.8-0.2-6.3-0.7-7.5c-0.4-1.2-1.6-2.2-3.6-2.9c-1.9-0.8-2.9-2-2.9-3.8
	c0-1.3,0.6-2.4,1.8-3.3c1.2-0.9,2.8-1.3,4.7-1.3l13,0.4L41,11.3c6.1,0,11.2,1,15.3,3.1s6.1,5.8,6.1,11.3c0,2.9-0.7,5.4-2.1,7.7
	c-1.5,2-3,4-4.6,6c0,0.8,1.1,1.6,3.3,2.5c2.2,0.9,4.2,2.6,6,5.1c1.8,2.5,2.8,5.3,2.8,8.2c0,6.1-2.2,11-6.6,14.7
	c-4.4,3.7-10.3,5.5-17.7,5.5l-8.2-0.3L27.9,74.9L27.9,74.9z M31.1,34.1c0,2.7,0.9,4.1,2.6,4.1c4.5,0,6.7-2.9,6.7-8.6
	c0-6.1-2.2-9.2-6.6-9.2c-1.8,0-2.8,1.4-2.8,4.2L31.1,34.1L31.1,34.1z M31.1,55.7c0,4.1,0.3,6.8,0.9,8.1c0.6,1.3,1.8,2,3.7,2
	c4.6,0,6.9-2.7,6.9-8.2c0-6.9-2.6-10.4-7.8-10.4c-1.5,0-2.4,0.3-2.9,0.9c-0.5,0.6-0.8,1.6-0.8,3.2L31.1,55.7L31.1,55.7z"/>
</svg>
