<?xml version="1.0" encoding="utf-8"?>
<!-- Generator: Adobe Illustrator 27.5.0, SVG Export Plug-In . SVG Version: 6.00 Build 0)  -->
<svg version="1.1" id="图层_1" xmlns="http://www.w3.org/2000/svg" xmlns:xlink="http://www.w3.org/1999/xlink" x="0px" y="0px"
	 viewBox="0 0 85 85" style="enable-background:new 0 0 85 85;" xml:space="preserve">
<style type="text/css">
	.st0{fill:#4CAF50;}
</style>
<path class="st0" d="M57.8,14.1c2.3,0,4.3,1.6,6,4.8s2.6,6.9,2.6,11c0,2.8-0.8,5.1-2.4,6.8s-3.7,2.7-6.3,2.7c-2.5,0-5.4-2.7-8.9-8
	s-7.9-8-13.3-8c-3.2,0-5.8,1.2-7.7,3.5s-2.9,5.5-2.9,9.5c0,6.3,1.8,11.7,5.3,16.4c3.5,4.7,8.3,7,14.4,7c3.4,0,6.4-0.6,9-1.9
	c2.3-1.5,4.7-2.9,7.1-4.4c1.1,0,2,0.5,2.8,1.5c0.8,1,1.1,2.3,1.1,3.7c0,2.5-0.8,5.1-2.3,7.7C61,69,59.1,70.5,57,70.9
	c-2.1,0.4-5.2,1.4-9.2,2.9s-8,2.4-11.8,2.4c-9.4,0-17.5-3.2-24.3-9.6C5,60.2,1.6,52.5,1.6,43.7c0-8.8,3.4-16.5,10.2-23.2
	s14.7-10,23.8-10c3.2,0,6.4,0.4,9.4,1.3c2.9,1,5.9,2,8.8,3l1.4-0.2l1.5-0.3C57.1,14.2,57.4,14.1,57.8,14.1L57.8,14.1z"/>
</svg>
