<?xml version="1.0" encoding="utf-8"?>
<!-- Generator: Adobe Illustrator 27.5.0, SVG Export Plug-In . SVG Version: 6.00 Build 0)  -->
<svg version="1.1" id="图层_1" xmlns="http://www.w3.org/2000/svg" xmlns:xlink="http://www.w3.org/1999/xlink" x="0px" y="0px"
	 viewBox="0 0 85 85" style="enable-background:new 0 0 85 85;" xml:space="preserve">
<style type="text/css">
	.st0{fill:#9E9E9E;}
</style>
<path class="st0" d="M19.1,75c-1.6,0-3.6,0.1-6,0.2c-2.4,0.2-3.8,0.2-4.2,0.2c-2.3,0-4.1-0.5-5.4-1.4c-1.3-0.9-2-2.2-2-3.8
	c0-1.9,1.2-3.1,3.7-3.8s3.7-3.2,3.7-7.7l0.9-31.5c0-2.7-0.2-4.5-0.6-5.4s-1.5-1.6-3.3-2.2c-1.8-0.6-2.8-1.9-2.8-3.9
	c0-3.2,2.8-4.8,8.5-4.8l8.5,0.2l19-0.6c5.9,0,10.6,0.5,14.2,1.4c3.5,0.9,7,2.6,10.3,5.2s6,6.1,7.9,10.5s2.9,9.5,2.9,15.1
	c0,9.8-3,17.7-8.9,23.7c-5.9,6-13.6,9.1-23,9.1l-6.1-0.2L19.1,75L19.1,75z M31.5,60.7c0,2,0.4,3.4,1.2,4.2c0.8,0.8,2.3,1.2,4.4,1.2
	c4.4,0,7.7-1.7,10-5.1c2.3-3.4,3.4-8.4,3.4-14.9c0-8.7-1.2-15-3.6-19.1c-2.4-4.1-6.2-6.1-11.3-6.1c-2.7,0-4.1,1.3-4.1,3.9L31.5,60.7
	L31.5,60.7z"/>
</svg>
