<?xml version="1.0" standalone="no"?><!DOCTYPE svg PUBLIC "-//W3C//DTD SVG 1.1//EN" "http://www.w3.org/Graphics/SVG/1.1/DTD/svg11.dtd"><svg class="icon" width="200px" height="200.00px" viewBox="0 0 1024 1024" version="1.1" xmlns="http://www.w3.org/2000/svg"><path d="M516.78191 406.89622c18.669198 11.692297 41.534975 27.325345 62.788022 42.440601 42.053792 29.847795 203.358571 18.34788 269.183765 23.711028 65.763796 5.29254 115.442242 19.829628 115.442242 19.829628L872.464725 340.680123c0 0 99.41829-149.161205 87.142709-146.060587-12.143575 3.102664-74.093509 4.590552-114.662483-6.845918-40.565904-11.43647-133.850497-12.209066-197.35381-12.209066-47.089481 0-104.388489-40.505529-130.748856-61.371766L516.842285 63.09706l-74.28896 0 0 792.31529 74.223468 0 0-448.515107L516.78191 406.897244zM516.78191 406.89622" fill="#12b7f5" /><path d="M620.914572 682.217776l0 55.816237c106.007359 14.210653 179.196265 44.572148 179.196265 79.780021 0 48.839335-140.500964 88.438215-313.695538 88.438215-173.188434 0-313.629024-39.599903-313.629024-88.438215 0-34.498722 70.348208-64.341401 172.801624-78.938863l0-56.007595C179.180915 702.374862 59.802014 755.537665 59.802014 817.813011c0 79.068823 190.95917 143.088906 426.613284 143.088906 235.661278 0 426.620447-64.020082 426.620447-143.088906C912.970254 754.698554 790.555204 701.083449 620.914572 682.217776L620.914572 682.217776zM620.914572 682.217776" fill="#12b7f5" /></svg>