<?xml version="1.0" standalone="no"?><!DOCTYPE svg PUBLIC "-//W3C//DTD SVG 1.1//EN" "http://www.w3.org/Graphics/SVG/1.1/DTD/svg11.dtd"><svg class="icon" width="200px" height="200.00px" viewBox="0 0 1024 1024" version="1.1" xmlns="http://www.w3.org/2000/svg"><path d="M718.336 582.144L501.76 709.12c-70.144-42.496-203.264-116.736-203.264-116.736l-241.664 234.496 193.024 4.096 4.096 193.024 257.536-257.024c30.72 29.696 68.096 65.024 66.56 65.536l190.976 190.976 4.096-193.024 193.024-4.096-247.808-244.224z" fill="#FFC800" /><path d="M669.696 605.184L501.76 709.12c-70.144-42.496-164.864-103.936-164.864-103.936l-225.28 222.72 138.24 3.584 3.584 109.056 221.184-220.16c30.72 29.696 69.12 1.024 68.096 1.536l228.864 231.424 3.584-122.88 131.584-3.584-237.056-221.696z" fill="#FF3B06" /><path d="M638.464 723.456l74.24 11.776c2.56 0 5.12 1.024 7.68 1.024 10.24 0 19.456-3.584 28.16-9.216 10.24-7.68 17.92-19.456 18.944-33.28l11.264-71.68c2.56-16.384 12.8-29.184 26.624-34.816l65.536-33.28c11.264-6.144 19.456-15.36 24.064-27.136 1.536-4.096 2.56-9.216 2.56-14.336 0-7.68-1.536-15.36-5.12-22.016l-34.304-66.56c-3.584-6.144-5.12-13.824-5.12-21.504s1.536-15.36 5.12-21.504l34.304-66.56c3.584-6.144 5.12-13.824 5.12-21.504 0-5.12-1.024-10.24-2.56-14.336-3.584-11.776-11.776-21.504-24.064-27.136l-67.584-33.28c-13.824-6.656-24.064-20.48-25.6-35.84l-11.264-72.704c-2.56-13.824-10.24-25.6-21.504-32.256-5.12-4.096-15.36-7.68-25.6-7.68-2.56 0-5.12 0-7.68 1.024L637.44 81.92c-2.56 0-5.12 1.024-7.68 1.024-12.8 0-24.576-5.12-32.256-13.824L544.256 15.36c-8.704-8.704-20.48-13.824-33.28-13.824S486.4 6.656 477.696 15.36L424.96 69.12c-8.704 8.704-19.456 13.824-32.256 13.824-2.56 0-5.12 0-7.68-1.024l-73.216-13.824h-7.68c-10.24 0-19.456 3.584-28.16 9.216-10.24 7.68-17.92 19.456-18.944 33.28l-11.264 71.68c-2.56 16.384-12.8 29.184-26.624 34.816L153.6 249.856c-11.264 6.144-19.456 15.36-24.064 27.136-1.536 4.608-2.56 9.728-2.56 14.848 0 7.68 1.536 15.36 5.12 22.016l34.304 66.56c3.584 6.144 5.12 13.824 5.12 21.504s-1.536 14.336-5.12 21.504l-34.304 66.56c-3.584 6.144-5.12 13.824-5.12 21.504 0 5.12 1.024 10.24 2.56 14.336 3.584 11.776 11.776 21.504 24.064 27.136l67.584 33.28c13.824 6.656 24.064 20.48 25.6 35.84l11.264 72.704c2.56 13.824 10.24 25.6 21.504 32.256 5.12 4.096 15.36 7.68 25.6 7.68 2.56 0 5.12 0 7.68-1.024l74.24-11.776c2.56 0 5.12-1.024 7.68-1.024 12.8 0 24.576 5.12 32.256 13.824L479.744 788.48c8.704 8.704 20.48 13.824 33.28 13.824s24.576-5.12 33.28-13.824l52.736-53.76c8.704-8.704 19.456-13.824 32.256-13.824 2.56 2.048 5.12 2.048 7.168 2.56z" fill="#cd7f32" /><path d="M512 674.304c-153.6 0-279.04-125.44-279.04-279.04S358.4 116.224 512 116.224s279.04 125.44 279.04 279.04-125.44 279.04-279.04 279.04z" fill="#d81e06" /><path d="M512 615.936c-121.856 0-220.16-98.816-220.16-221.184S390.144 174.08 512 174.08s220.16 98.816 220.16 221.184c0 120.832-98.304 220.672-220.16 220.672z" fill="#cd7f32" /></svg>