<?xml version="1.0" encoding="utf-8"?>
<!-- Generator: Adobe Illustrator 27.5.0, SVG Export Plug-In . SVG Version: 6.00 Build 0)  -->
<svg version="1.1" id="图层_1" xmlns="http://www.w3.org/2000/svg" xmlns:xlink="http://www.w3.org/1999/xlink" x="0px" y="0px"
	 viewBox="0 0 150 150" style="enable-background:new 0 0 150 150;" xml:space="preserve">
<style type="text/css">
	.st0{fill:#FFD700;}
</style>
<path class="st0" d="M57,137.5c-28.3,0-50.4-15.8-50.4-36.7l20.8,0c0,7.5,12.9,15.8,29.6,15.8s29.6-8.3,29.6-15.8S73.7,85,57,85
	C28.7,85,6.6,69.2,6.6,48.3S28.7,12.5,57,12.5s50.4,15.8,50.4,36.7l-20.8,0c0-7.5-12.9-15.8-29.6-15.8s-29.6,8.3-29.6,15.8
	S40.3,65,57,65c28.3,0,50.4,15.8,50.4,36.7S85.3,137.5,57,137.5z"/>
</svg>
