<?xml version="1.0" standalone="no"?><!DOCTYPE svg PUBLIC "-//W3C//DTD SVG 1.1//EN" "http://www.w3.org/Graphics/SVG/1.1/DTD/svg11.dtd"><svg class="icon" width="200px" height="200.00px" viewBox="0 0 1024 1024" version="1.1" xmlns="http://www.w3.org/2000/svg"><path d="M900.8 432.96a137.92 137.92 0 0 1-58.24-140.16c14.72-76.16 27.52-101.12 8.64-120.32s-43.84-6.08-120.32 8.64a137.92 137.92 0 0 1-140.16-58.24C547.52 58.88 538.88 32 512 32s-35.52 26.88-79.04 91.2a137.92 137.92 0 0 1-140.16 57.92C216.64 166.4 192 153.6 172.48 172.48s-6.08 43.84 8.64 120.32a137.92 137.92 0 0 1-58.24 140.16C58.88 476.48 32 485.12 32 512s26.88 35.52 91.2 79.04a137.92 137.92 0 0 1 57.92 140.16c-14.72 76.16-27.52 100.8-8.64 120.32s43.84 6.08 120.32-8.64a137.92 137.92 0 0 1 140.16 58.24c43.52 64 52.16 90.88 79.04 90.88s35.52-26.88 79.04-90.88a137.92 137.92 0 0 1 140.16-58.24c76.16 14.72 101.12 27.52 120.32 8.64s6.08-43.84-8.64-120.32a137.92 137.92 0 0 1 57.92-140.16C965.12 547.52 992 538.88 992 512s-26.88-35.52-91.2-79.04zM320 416a64 64 0 1 1 64 64 64 64 0 0 1-64-64z m192 307.2c-128 0-198.4-133.44-141.44-147.52 15.04-3.52 46.4 20.16 61.12 27.2a192 192 0 0 0 80.32 18.24h11.84a186.56 186.56 0 0 0 68.48-17.92c32-15.36 58.56-45.44 77.76-15.04s-40.32 129.6-158.08 134.72z m128-243.2a64 64 0 1 1 64-64 64 64 0 0 1-64 64z" fill="#ffffff" /></svg>