<?xml version="1.0" standalone="no"?><!DOCTYPE svg PUBLIC "-//W3C//DTD SVG 1.1//EN" "http://www.w3.org/Graphics/SVG/1.1/DTD/svg11.dtd"><svg class="icon" width="200px" height="200.00px" viewBox="0 0 1024 1024" version="1.1" xmlns="http://www.w3.org/2000/svg"><path d="M921.6 119.467h-34.133V85.333A68.267 68.267 0 0 0 819.2 17.067H204.8a68.267 68.267 0 0 0-68.267 68.266v34.134H102.4c-56.474 0-102.4 45.926-102.4 102.4v68.266c0 56.474 45.926 102.4 102.4 102.4h34.133c0 195.004 150.682 356.438 341.334 373.829V870.4h-95.813a34.133 34.133 0 0 0-31.965 22.153l-25.6 68.266a34.133 34.133 0 0 0 31.965 46.114h311.092a34.133 34.133 0 0 0 31.965-46.114l-25.6-68.266a34.133 34.133 0 0 0-31.965-22.153h-95.813V766.362c190.652-17.391 341.334-178.825 341.334-373.829H921.6c56.474 0 102.4-45.926 102.4-102.4v-68.266c0-56.457-45.926-102.4-102.4-102.4z m-819.2 204.8c-18.825 0-34.133-15.31-34.133-34.134v-68.266c0-18.825 15.308-34.134 34.133-34.134h34.133v136.534H102.4z m541.713-1.707l-55.091 56.32 12.424 77.346a15.53 15.53 0 0 1-14.728 20.429h-0.205a16.213 16.213 0 0 1-7.22-1.74l-67.43-37.513-67.396 37.068a15.53 15.53 0 1 1-22.8-16.128l13.14-79.752-54.954-56.542a15.394 15.394 0 0 1-3.584-15.753 15.36 15.36 0 0 1 12.373-10.41l75.503-11.367 33.997-72.038a15.548 15.548 0 0 1 28.143 0.068l33.724 72.243 75.383 11.606c5.751 0.853 10.479 4.864 12.34 10.445a15.428 15.428 0 0 1-3.619 15.718z m311.62-32.427c0 18.825-15.308 34.134-34.133 34.134h-34.133V187.733H921.6c18.825 0 34.133 15.31 34.133 34.134v68.266z" fill="#ffffff" /></svg>