<?xml version="1.0" standalone="no"?><!DOCTYPE svg PUBLIC "-//W3C//DTD SVG 1.1//EN" "http://www.w3.org/Graphics/SVG/1.1/DTD/svg11.dtd"><svg class="icon" width="200px" height="200.00px" viewBox="0 0 1024 1024" version="1.1" xmlns="http://www.w3.org/2000/svg"><path d="M778.752 513.024h-153.6V296.96c0-33.792-27.648-61.44-61.44-61.44H459.776c-33.792 0-61.44 27.648-61.44 61.44v83.456H245.248c-33.792 0-61.44 27.648-61.44 61.44V727.04c0 33.792 27.648 61.44 61.44 61.44h533.504c33.792 0 61.44-27.648 61.44-61.44v-152.576c0-33.792-27.648-61.44-61.44-61.44z m-437.248 64.512H267.776c-10.752 0-16.384-4.608-16.384-14.336 0-3.584 1.536-7.168 4.096-11.264 3.072-3.584 7.168-8.704 13.824-15.36 18.944-20.48 32.768-36.864 40.96-49.152 5.12-7.168 7.68-14.336 7.68-20.48-1.024-10.24-6.144-15.872-15.36-16.896-9.216 0-15.872 6.144-19.456 18.432-3.584 10.752-8.192 15.872-14.336 15.872-10.24-0.512-15.872-5.632-16.384-15.36 3.584-29.184 20.48-46.08 51.2-49.152 30.72 1.536 47.104 16.896 48.64 45.056 0 15.36-12.8 37.888-38.4 67.072-6.144 7.168-10.752 12.8-13.824 15.872h39.424c11.264 0 16.896 4.608 16.896 14.336 0.512 10.24-4.608 14.848-14.848 15.36z m199.168-164.352c-0.512 10.24-6.144 15.36-16.384 15.36s-15.872-5.12-16.384-15.36V303.616h-12.8c-9.728-0.512-14.848-5.632-15.36-15.36 0.512-9.216 5.632-13.824 15.36-14.336h30.72c9.216 0.512 13.824 5.632 14.336 15.36v123.904z m183.296 296.448c-30.72-1.536-48.64-14.848-53.248-38.912 1.024-8.704 6.656-13.312 16.896-14.336 4.096 0 8.192 3.584 12.8 10.24 6.144 10.24 13.824 15.36 23.04 15.36 12.8-1.024 19.456-7.68 20.48-20.48 0-10.752-6.656-16.896-19.456-18.432-11.264-2.048-16.896-7.168-16.896-15.36 0-7.168 5.12-12.288 15.36-15.36 10.24-2.048 15.36-7.68 15.36-15.872-0.512-9.216-5.632-13.824-15.36-14.336-8.192 0-14.336 4.096-19.456 11.776-4.608 6.144-9.216 9.216-13.824 9.216-8.704-0.512-13.312-6.144-13.824-15.872 4.096-20.48 19.456-31.744 47.104-34.816 28.16 1.536 43.52 14.848 47.104 39.936 0 14.336-6.144 25.088-17.92 33.28 16.896 8.704 26.112 20.992 26.624 38.4-3.072 27.648-21.504 43.008-54.784 45.568z" fill="#333333" /></svg>