<?xml version="1.0" standalone="no"?><!DOCTYPE svg PUBLIC "-//W3C//DTD SVG 1.1//EN" "http://www.w3.org/Graphics/SVG/1.1/DTD/svg11.dtd"><svg class="icon" width="200px" height="119.98px" viewBox="0 0 1707 1024" version="1.1" xmlns="http://www.w3.org/2000/svg"><path d="M1638.379128 8.027532c33.217927 0 60.2386 27.020672 60.2386 60.2386l0 750.919419c0 33.217927-27.020672 60.2386-60.2386 60.2386l-136.532263 0-8.027532 0 0 8.027532 0 117.177884-123.134312-122.861376-2.352067-2.344039-3.323398 0L68.266131 879.42415c-33.217927 0-60.2386-27.020672-60.2386-60.2386L8.027532 68.266131C8.027532 35.048204 35.048204 8.027532 68.266131 8.027532L1638.379128 8.027532M1638.379128 0 68.266131 0C30.560814 0 0 30.560814 0 68.266131l0 750.919419c0 37.705317 30.560814 68.266131 68.266131 68.266131l1296.743425 0 136.837309 136.532263 0-136.532263 136.532263 0c37.705317 0 68.266131-30.560814 68.266131-68.266131L1706.64526 68.266131C1706.637232 30.560814 1676.076418 0 1638.379128 0L1638.379128 0z" fill="#333333" /></svg>