<?xml version="1.0" standalone="no"?><!DOCTYPE svg PUBLIC "-//W3C//DTD SVG 1.1//EN" "http://www.w3.org/Graphics/SVG/1.1/DTD/svg11.dtd"><svg class="icon" width="200px" height="200.00px" viewBox="0 0 1024 1024" version="1.1" xmlns="http://www.w3.org/2000/svg"><path d="M913.542282 335.574848c-25.269523 0-45.75509 20.485567-45.75509 45.760207 0 9.193383 2.718925 17.748223 7.387247 24.917506l-198.264553 77.011978L529.340947 221.861994c16.066931-7.100722 27.290553-23.167652 27.290553-41.86448 0-25.27464-20.48966-45.760207-45.759183-45.760207-25.269523 0-45.760207 20.485567-45.760207 45.760207 0 18.696828 11.224646 34.763758 27.29567 41.86448L344.835769 483.263515l-198.265576-77.011978c4.668323-7.16826 7.387247-15.7231 7.387247-24.917506 0-25.27464-20.484543-45.760207-45.754067-45.760207-25.27464 0-45.760207 20.485567-45.760207 45.760207 0 25.269523 20.485567 45.760207 45.760207 45.760207 5.208629 0 10.209526-0.886183 14.872732-2.486634l67.49216 350.242919c0 0 78.30032 112.161522 329.721537 112.161522 236.892315 0 310.314535-112.085798 310.891679-112.161522l67.488067-350.242919c4.66423 1.600451 9.66308 2.486634 14.877849 2.486634 25.269523 0 45.75509-20.490683 45.75509-45.760207C959.302489 356.060415 938.816922 335.574848 913.542282 335.574848zM500.18593 770.155595c-38.312584 0-64.182788-14.409175-81.210603-33.729196l22.594601-30.454616c14.409175 14.081717 32.091906 24.886807 54.032614 24.886807 24.559349 0 41.259706-12.116969 41.259706-33.728172 0-23.905456-14.080693-38.642089-66.802452-38.642089l0-34.710546c44.535309 0 58.944484-15.391549 58.944484-37.004799 0-18.992563-11.789511-30.125111-32.419364-30.453592-17.356296 0.327458-31.43699 8.513908-45.845141 21.612227l-24.560372-29.472242c20.957311-18.33867 44.207851-29.7997 72.697719-29.7997 46.827515 0 78.591963 22.923082 78.591963 64.511269 0 26.197662-14.735609 45.190225-40.606837 55.341423l0 1.638313c27.507494 7.53051 48.464805 27.833929 48.464805 59.598376C585.327052 744.285391 546.358529 770.155595 500.18593 770.155595z" fill="#333333" /></svg>